<?xml version="1.0" encoding="UTF-8" standalone="no"?><!-- Generator: Gravit.io --><svg xmlns="http://www.w3.org/2000/svg" xmlns:xlink="http://www.w3.org/1999/xlink" style="isolation:isolate" viewBox="0 0 100 100" width="100pt" height="100pt"><g><defs><filter id="vKv7Il8PnpMHj4wDAVwwmhnNzkPjLzxc" x="-200%" y="-200%" width="400%" height="400%" filterUnits="objectBoundingBox" color-interpolation-filters="sRGB"><feGaussianBlur xmlns="http://www.w3.org/2000/svg" in="SourceGraphic" stdDeviation="3.4348872502712227"/><feOffset xmlns="http://www.w3.org/2000/svg" dx="0" dy="2" result="pf_100_offsetBlur"/><feFlood xmlns="http://www.w3.org/2000/svg" flood-color="#000000" flood-opacity="0.65"/><feComposite xmlns="http://www.w3.org/2000/svg" in2="pf_100_offsetBlur" operator="in" result="pf_100_dropShadow"/><feBlend xmlns="http://www.w3.org/2000/svg" in="SourceGraphic" in2="pf_100_dropShadow" mode="normal"/></filter></defs><g filter="url(#vKv7Il8PnpMHj4wDAVwwmhnNzkPjLzxc)"><clipPath id="_clipPath_rg7vTrHXFNWVC3taQGMk2vpRCri5QIhX"><path d="M 40.699 29.486 L 70.602 29.486 C 71.997 29.486 73.129 30.619 73.129 32.013 L 73.129 67.987 C 73.129 69.381 71.997 70.514 70.602 70.514 L 40.699 70.514 C 39.304 70.514 38.172 69.381 38.172 67.987 L 38.172 32.013 C 38.172 30.619 39.304 29.486 40.699 29.486 Z" style="stroke:none;fill:#FFFFFF;stroke-miterlimit:10;"/></clipPath><g clip-path="url(#_clipPath_rg7vTrHXFNWVC3taQGMk2vpRCri5QIhX)"><rect x="38.172" y="29.486" width="17.517" height="41.191" transform="matrix(1,0,0,1,0,0)" fill="rgb(213,115,64)"/><rect x="55.689" y="41.025" width="5.818" height="18.114" transform="matrix(1,0,0,1,0,0)" fill="rgb(226,164,132)"/><rect x="61.507" y="35.063" width="5.818" height="30.039" transform="matrix(1,0,0,1,0,0)" fill="rgb(216,140,101)"/><rect x="67.311" y="29.486" width="5.818" height="41.191" transform="matrix(1,0,0,1,0,0)" fill="rgb(182,72,14)"/></g></g><defs><filter id="To9ydleGSv9bcOwxipVYU2kwZMBffOyY" x="-200%" y="-200%" width="400%" height="400%" filterUnits="objectBoundingBox" color-interpolation-filters="sRGB"><feGaussianBlur xmlns="http://www.w3.org/2000/svg" in="SourceGraphic" stdDeviation="6.440413594258542"/><feOffset xmlns="http://www.w3.org/2000/svg" dx="0" dy="3" result="pf_100_offsetBlur"/><feFlood xmlns="http://www.w3.org/2000/svg" flood-color="#000000" flood-opacity="0.7"/><feComposite xmlns="http://www.w3.org/2000/svg" in2="pf_100_offsetBlur" operator="in" result="pf_100_dropShadow"/><feBlend xmlns="http://www.w3.org/2000/svg" in="SourceGraphic" in2="pf_100_dropShadow" mode="normal"/></filter></defs><g filter="url(#To9ydleGSv9bcOwxipVYU2kwZMBffOyY)"><path d="M 28.905 38.041 L 48.776 38.041 C 49.899 38.041 50.811 38.953 50.811 40.076 L 50.811 59.947 C 50.811 61.07 49.899 61.982 48.776 61.982 L 28.905 61.982 C 27.782 61.982 26.871 61.07 26.871 59.947 L 26.871 40.076 C 26.871 38.953 27.782 38.041 28.905 38.041 Z" style="stroke:none;fill:#B6480E;stroke-miterlimit:10;"/></g><defs><linearGradient id="_lgradient_1" x1="0.5" y1="0" x2="0.5000000000000001" y2="1"><stop offset="0%" style="stop-color:#BD5A26"/><stop offset="100%" style="stop-color:#A4410D"/></linearGradient></defs><path d="M 28.894 38.041 L 48.66 38.041 C 49.776 38.041 50.683 38.948 50.683 40.065 L 50.683 59.83 C 50.683 60.947 49.776 61.854 48.66 61.854 L 28.894 61.854 C 27.777 61.854 26.871 60.947 26.871 59.83 L 26.871 40.065 C 26.871 38.948 27.777 38.041 28.894 38.041 Z" style="stroke:none;fill:url(#_lgradient_1);stroke-miterlimit:10;"/><path d=" M 40.918 54.23 L 36.635 54.23 L 36.635 54.23 Q 36.301 54.23 36.008 54.105 L 36.008 54.105 L 36.008 54.105 Q 35.715 53.979 35.498 53.762 L 35.498 53.762 L 35.498 53.762 Q 35.28 53.544 35.155 53.252 L 35.155 53.252 L 35.155 53.252 Q 35.029 52.959 35.029 52.624 L 35.029 52.624 L 35.029 42.988 L 35.029 42.988 Q 35.029 42.654 35.155 42.361 L 35.155 42.361 L 35.155 42.361 Q 35.28 42.068 35.498 41.851 L 35.498 41.851 L 35.498 41.851 Q 35.715 41.633 36.008 41.508 L 36.008 41.508 L 36.008 41.508 Q 36.301 41.382 36.635 41.382 L 36.635 41.382 L 40.918 41.382 L 40.918 41.382 Q 41.253 41.382 41.546 41.508 L 41.546 41.508 L 41.546 41.508 Q 41.838 41.633 42.056 41.851 L 42.056 41.851 L 42.056 41.851 Q 42.273 42.068 42.399 42.361 L 42.399 42.361 L 42.399 42.361 Q 42.524 42.654 42.524 42.988 L 42.524 42.988 L 42.524 52.624 L 42.524 52.624 Q 42.524 52.959 42.399 53.252 L 42.399 53.252 L 42.399 53.252 Q 42.273 53.544 42.056 53.762 L 42.056 53.762 L 42.056 53.762 Q 41.838 53.979 41.546 54.105 L 41.546 54.105 L 41.546 54.105 Q 41.253 54.23 40.918 54.23 L 40.918 54.23 Z  M 36.1 42.988 L 36.1 52.624 L 36.1 52.624 Q 36.1 52.842 36.259 53.001 L 36.259 53.001 L 36.259 53.001 Q 36.418 53.16 36.635 53.16 L 36.635 53.16 L 40.918 53.16 L 40.918 53.16 Q 41.136 53.16 41.295 53.001 L 41.295 53.001 L 41.295 53.001 Q 41.454 52.842 41.454 52.624 L 41.454 52.624 L 41.454 42.988 L 41.454 42.988 Q 41.454 42.771 41.295 42.612 L 41.295 42.612 L 41.295 42.612 Q 41.136 42.453 40.918 42.453 L 40.918 42.453 L 36.635 42.453 L 36.635 42.453 Q 36.418 42.453 36.259 42.612 L 36.259 42.612 L 36.259 42.612 Q 36.1 42.771 36.1 42.988 L 36.1 42.988 Z  M 43.595 49.948 L 44.666 49.948 L 44.666 52.976 L 44.666 52.976 Q 44.666 53.678 44.398 54.297 L 44.398 54.297 L 44.398 54.297 Q 44.13 54.916 43.67 55.376 L 43.67 55.376 L 43.67 55.376 Q 43.21 55.836 42.591 56.104 L 42.591 56.104 L 42.591 56.104 Q 41.972 56.372 41.269 56.372 L 41.269 56.372 L 39.312 56.372 L 39.312 57.442 L 41.454 57.442 L 41.454 58.513 L 36.1 58.513 L 36.1 57.442 L 38.241 57.442 L 38.241 56.372 L 36.284 56.372 L 36.284 56.372 Q 35.582 56.372 34.963 56.104 L 34.963 56.104 L 34.963 56.104 Q 34.344 55.836 33.884 55.376 L 33.884 55.376 L 33.884 55.376 Q 33.423 54.916 33.156 54.297 L 33.156 54.297 L 33.156 54.297 Q 32.888 53.678 32.888 52.976 L 32.888 52.976 L 32.888 49.948 L 33.959 49.948 L 33.959 52.976 L 33.959 52.976 Q 33.959 53.452 34.143 53.879 L 34.143 53.879 L 34.143 53.879 Q 34.327 54.306 34.641 54.619 L 34.641 54.619 L 34.641 54.619 Q 34.954 54.933 35.381 55.117 L 35.381 55.117 L 35.381 55.117 Q 35.807 55.301 36.284 55.301 L 36.284 55.301 L 41.269 55.301 L 41.269 55.301 Q 41.746 55.301 42.173 55.117 L 42.173 55.117 L 42.173 55.117 Q 42.599 54.933 42.913 54.619 L 42.913 54.619 L 42.913 54.619 Q 43.227 54.306 43.411 53.879 L 43.411 53.879 L 43.411 53.879 Q 43.595 53.452 43.595 52.976 L 43.595 52.976 L 43.595 49.948 Z " fill="rgb(255,255,255)"/></g></svg>